<?xml version="1.0" standalone="no"?>
<!DOCTYPE svg PUBLIC "-//W3C//DTD SVG 20010904//EN"
 "http://www.w3.org/TR/2001/REC-SVG-20010904/DTD/svg10.dtd">
<svg version="1.0" xmlns="http://www.w3.org/2000/svg"
 width="520.000000pt" height="480.000000pt" viewBox="0 0 520.000000 480.000000"
 preserveAspectRatio="xMidYMid meet">

<g transform="translate(0.000000,480.000000) scale(0.100000,-0.100000)"
fill="#000000" stroke="none">
<path d="M1820 3108 c-57 -39 -75 -72 -75 -137 1 -48 6 -65 28 -95 50 -65 123
-83 200 -51 111 46 119 224 12 286 -45 26 -124 24 -165 -3z"/>
<path d="M3242 2828 c-18 -11 -42 -38 -52 -59 -73 -143 70 -289 215 -219 120
58 112 243 -13 291 -40 15 -115 9 -150 -13z"/>
<path d="M2222 2476 c13 -114 102 -214 222 -251 74 -22 144 -16 219 20 59 28
137 105 137 136 0 18 -15 22 -135 34 -112 11 -240 40 -362 81 -39 13 -75 24
-78 24 -4 0 -5 -20 -3 -44z"/>
</g>
</svg>
